<mxfile host="Electron" modified="2023-08-07T19:49:40.831Z" agent="Mozilla/5.0 (Windows NT 10.0; Win64; x64) AppleWebKit/537.36 (KHTML, like Gecko) draw.io/21.6.5 Chrome/114.0.5735.243 Electron/25.3.1 Safari/537.36" etag="yrxjNLmOjColZjWNpRA2" version="21.6.5" type="device">
  <diagram name="Seite-1" id="KqCGV6H5FJnUcBjZpOEV">
    <mxGraphModel dx="1480" dy="866" grid="1" gridSize="10" guides="1" tooltips="1" connect="1" arrows="1" fold="1" page="1" pageScale="1" pageWidth="827" pageHeight="1169" math="0" shadow="0">
      <root>
        <mxCell id="0" />
        <mxCell id="1" parent="0" />
        <mxCell id="LbcfHVIm8EftRbl9Qmup-1" value="FPGA" style="rounded=0;whiteSpace=wrap;html=1;" parent="1" vertex="1">
          <mxGeometry x="40" y="140" width="120" height="280" as="geometry" />
        </mxCell>
        <mxCell id="LbcfHVIm8EftRbl9Qmup-3" value="POWER &lt;br&gt;MOSFET" style="rounded=0;whiteSpace=wrap;html=1;" parent="1" vertex="1">
          <mxGeometry x="360" y="140" width="120" height="60" as="geometry" />
        </mxCell>
        <mxCell id="LbcfHVIm8EftRbl9Qmup-21" value="" style="edgeStyle=orthogonalEdgeStyle;rounded=0;orthogonalLoop=1;jettySize=auto;html=1;" parent="1" source="LbcfHVIm8EftRbl9Qmup-4" target="LbcfHVIm8EftRbl9Qmup-6" edge="1">
          <mxGeometry relative="1" as="geometry" />
        </mxCell>
        <mxCell id="LbcfHVIm8EftRbl9Qmup-4" value="LOW NOISE&lt;br&gt;AMPLIFIER" style="rounded=0;whiteSpace=wrap;html=1;" parent="1" vertex="1">
          <mxGeometry x="360" y="310" width="120" height="60" as="geometry" />
        </mxCell>
        <mxCell id="LbcfHVIm8EftRbl9Qmup-5" value="ANALOG-TO-DIGITAL&lt;br&gt;CONVERTER" style="rounded=0;whiteSpace=wrap;html=1;" parent="1" vertex="1">
          <mxGeometry x="200" y="360" width="120" height="60" as="geometry" />
        </mxCell>
        <mxCell id="LbcfHVIm8EftRbl9Qmup-6" value="COMPARATOR" style="rounded=0;whiteSpace=wrap;html=1;" parent="1" vertex="1">
          <mxGeometry x="200" y="270" width="120" height="60" as="geometry" />
        </mxCell>
        <mxCell id="LbcfHVIm8EftRbl9Qmup-7" value="POWER SUPPLY" style="rounded=0;whiteSpace=wrap;html=1;" parent="1" vertex="1">
          <mxGeometry x="40" y="40" width="440" height="60" as="geometry" />
        </mxCell>
        <mxCell id="LbcfHVIm8EftRbl9Qmup-8" value="MOSFET GATE DRIVER" style="rounded=0;whiteSpace=wrap;html=1;" parent="1" vertex="1">
          <mxGeometry x="200" y="140" width="120" height="60" as="geometry" />
        </mxCell>
        <mxCell id="LbcfHVIm8EftRbl9Qmup-9" value="" style="endArrow=classic;html=1;rounded=0;entryX=0;entryY=0.5;entryDx=0;entryDy=0;" parent="1" target="LbcfHVIm8EftRbl9Qmup-8" edge="1">
          <mxGeometry width="50" height="50" relative="1" as="geometry">
            <mxPoint x="160" y="170" as="sourcePoint" />
            <mxPoint x="900" y="230" as="targetPoint" />
          </mxGeometry>
        </mxCell>
        <mxCell id="LbcfHVIm8EftRbl9Qmup-10" value="" style="endArrow=classic;html=1;rounded=0;entryX=0;entryY=0.5;entryDx=0;entryDy=0;" parent="1" edge="1">
          <mxGeometry width="50" height="50" relative="1" as="geometry">
            <mxPoint x="320" y="169.5" as="sourcePoint" />
            <mxPoint x="360" y="169.5" as="targetPoint" />
          </mxGeometry>
        </mxCell>
        <mxCell id="LbcfHVIm8EftRbl9Qmup-11" value="" style="endArrow=classic;html=1;rounded=0;exitX=1;exitY=0.5;exitDx=0;exitDy=0;" parent="1" source="LbcfHVIm8EftRbl9Qmup-3" edge="1">
          <mxGeometry width="50" height="50" relative="1" as="geometry">
            <mxPoint x="850" y="280" as="sourcePoint" />
            <mxPoint x="510" y="170" as="targetPoint" />
          </mxGeometry>
        </mxCell>
        <mxCell id="LbcfHVIm8EftRbl9Qmup-15" style="edgeStyle=orthogonalEdgeStyle;rounded=0;orthogonalLoop=1;jettySize=auto;html=1;entryX=1;entryY=0.5;entryDx=0;entryDy=0;" parent="1" source="LbcfHVIm8EftRbl9Qmup-13" target="LbcfHVIm8EftRbl9Qmup-4" edge="1">
          <mxGeometry relative="1" as="geometry">
            <mxPoint x="555" y="340" as="targetPoint" />
            <Array as="points">
              <mxPoint x="555" y="340" />
            </Array>
          </mxGeometry>
        </mxCell>
        <mxCell id="LbcfHVIm8EftRbl9Qmup-13" value="EXTERNAL PIEZO" style="shape=hexagon;perimeter=hexagonPerimeter2;whiteSpace=wrap;html=1;fixedSize=1;" parent="1" vertex="1">
          <mxGeometry x="510" y="140" width="90" height="60" as="geometry" />
        </mxCell>
        <mxCell id="LbcfHVIm8EftRbl9Qmup-19" value="" style="endArrow=classic;html=1;rounded=0;exitX=0;exitY=0.5;exitDx=0;exitDy=0;" parent="1" source="LbcfHVIm8EftRbl9Qmup-6" edge="1">
          <mxGeometry width="50" height="50" relative="1" as="geometry">
            <mxPoint x="850" y="280" as="sourcePoint" />
            <mxPoint x="160" y="300" as="targetPoint" />
          </mxGeometry>
        </mxCell>
        <mxCell id="LbcfHVIm8EftRbl9Qmup-20" value="" style="endArrow=classic;html=1;rounded=0;entryX=1.008;entryY=0.886;entryDx=0;entryDy=0;entryPerimeter=0;" parent="1" target="LbcfHVIm8EftRbl9Qmup-1" edge="1">
          <mxGeometry width="50" height="50" relative="1" as="geometry">
            <mxPoint x="200" y="388" as="sourcePoint" />
            <mxPoint x="165" y="388" as="targetPoint" />
          </mxGeometry>
        </mxCell>
        <mxCell id="LbcfHVIm8EftRbl9Qmup-23" value="" style="endArrow=classic;html=1;rounded=0;entryX=1;entryY=0.5;entryDx=0;entryDy=0;" parent="1" target="LbcfHVIm8EftRbl9Qmup-5" edge="1">
          <mxGeometry width="50" height="50" relative="1" as="geometry">
            <mxPoint x="340" y="390" as="sourcePoint" />
            <mxPoint x="530" y="250" as="targetPoint" />
            <Array as="points">
              <mxPoint x="340" y="340" />
              <mxPoint x="340" y="390" />
            </Array>
          </mxGeometry>
        </mxCell>
        <mxCell id="LbcfHVIm8EftRbl9Qmup-24" value="BUTTONS" style="rounded=0;whiteSpace=wrap;html=1;" parent="1" vertex="1">
          <mxGeometry x="200" y="460" width="120" height="60" as="geometry" />
        </mxCell>
        <mxCell id="LbcfHVIm8EftRbl9Qmup-27" value="" style="edgeStyle=orthogonalEdgeStyle;rounded=0;orthogonalLoop=1;jettySize=auto;html=1;entryX=0.663;entryY=0.999;entryDx=0;entryDy=0;entryPerimeter=0;endArrow=none;endFill=0;startArrow=classic;startFill=1;" parent="1" source="LbcfHVIm8EftRbl9Qmup-25" target="LbcfHVIm8EftRbl9Qmup-1" edge="1">
          <mxGeometry relative="1" as="geometry">
            <Array as="points">
              <mxPoint x="420" y="440" />
              <mxPoint x="120" y="440" />
            </Array>
          </mxGeometry>
        </mxCell>
        <mxCell id="LbcfHVIm8EftRbl9Qmup-25" value="LED" style="rounded=0;whiteSpace=wrap;html=1;" parent="1" vertex="1">
          <mxGeometry x="360" y="460" width="120" height="60" as="geometry" />
        </mxCell>
        <mxCell id="LbcfHVIm8EftRbl9Qmup-26" value="" style="endArrow=none;html=1;rounded=0;entryX=0.5;entryY=0;entryDx=0;entryDy=0;startArrow=classic;startFill=1;endFill=0;exitX=0.5;exitY=1;exitDx=0;exitDy=0;" parent="1" target="LbcfHVIm8EftRbl9Qmup-24" edge="1" source="LbcfHVIm8EftRbl9Qmup-1">
          <mxGeometry width="50" height="50" relative="1" as="geometry">
            <mxPoint x="80" y="420" as="sourcePoint" />
            <mxPoint x="110" y="440" as="targetPoint" />
            <Array as="points">
              <mxPoint x="100" y="450" />
              <mxPoint x="260" y="450" />
            </Array>
          </mxGeometry>
        </mxCell>
        <mxCell id="ueq-DUQiQ7C7flgJHMSO-2" value="SERIAL&lt;br&gt;INTERFACE" style="rounded=0;whiteSpace=wrap;html=1;" vertex="1" parent="1">
          <mxGeometry x="40" y="460" width="120" height="60" as="geometry" />
        </mxCell>
        <mxCell id="ueq-DUQiQ7C7flgJHMSO-3" value="" style="endArrow=classic;html=1;rounded=0;exitX=0.334;exitY=-0.001;exitDx=0;exitDy=0;exitPerimeter=0;entryX=0.335;entryY=0.999;entryDx=0;entryDy=0;entryPerimeter=0;startArrow=classic;startFill=1;" edge="1" parent="1" source="ueq-DUQiQ7C7flgJHMSO-2" target="LbcfHVIm8EftRbl9Qmup-1">
          <mxGeometry width="50" height="50" relative="1" as="geometry">
            <mxPoint x="470" y="320" as="sourcePoint" />
            <mxPoint x="90" y="430" as="targetPoint" />
          </mxGeometry>
        </mxCell>
      </root>
    </mxGraphModel>
  </diagram>
</mxfile>
